<svg xmlns="http://www.w3.org/2000/svg" viewBox="0 0 512 512"><defs><linearGradient id="bin" x1="0" y1="0" x2="1" y2="0"><stop offset="0" stop-color="#7d869c"/><stop offset="0.28" stop-color="#eef1f8"/><stop offset="0.55" stop-color="#b6bdcf"/><stop offset="1" stop-color="#6a7288"/></linearGradient><linearGradient id="binfade" x1="0" y1="0" x2="0" y2="1"><stop offset="0" stop-color="#000" stop-opacity="0"/><stop offset="1" stop-color="#1d2233" stop-opacity="0.3"/></linearGradient><clipPath id="binclip"><path d="M126 150 A130 30 0 0 0 386 150 L354 430 Q256 476 158 430z"/></clipPath><filter id="tsh" x="-15%" y="-15%" width="130%" height="135%"><feDropShadow dx="0" dy="8" stdDeviation="9" flood-color="#000" flood-opacity="0.28"/></filter></defs><ellipse cx="256" cy="150" rx="130" ry="30" fill="#3d4358"/><path d="M126 150 A130 30 0 0 1 386 150" fill="none" stroke="#7a55d6" stroke-width="12" stroke-linecap="round"/><path d="M168 132 l40 -38 l58 30 l-22 40z" fill="#fff"/><path d="M244 122 l60 -30 l34 46 l-52 28z" fill="#f6e4b8"/><path d="M304 132 l46 -6 l4 46 l-44 8z" fill="#fff"/><path d="M186 120 l26 -8 l8 30 l-28 6z" fill="#dfe6f5"/><g filter="url(#tsh)"><path d="M126 150 A130 30 0 0 0 386 150 L354 430 Q256 476 158 430z" fill="url(#bin)"/></g><g clip-path="url(#binclip)"><path d="M163.1 170 L186.0 452" stroke="#1d2233" stroke-opacity="0.16" stroke-width="7" stroke-linecap="round"/><path d="M168.1 170 L190.0 452" stroke="#fff" stroke-opacity="0.35" stroke-width="3" stroke-linecap="round"/><path d="M200.3 170 L214.0 452" stroke="#1d2233" stroke-opacity="0.16" stroke-width="7" stroke-linecap="round"/><path d="M205.3 170 L218.0 452" stroke="#fff" stroke-opacity="0.35" stroke-width="3" stroke-linecap="round"/><path d="M237.4 170 L242.0 452" stroke="#1d2233" stroke-opacity="0.16" stroke-width="7" stroke-linecap="round"/><path d="M242.4 170 L246.0 452" stroke="#fff" stroke-opacity="0.35" stroke-width="3" stroke-linecap="round"/><path d="M274.6 170 L270.0 452" stroke="#1d2233" stroke-opacity="0.16" stroke-width="7" stroke-linecap="round"/><path d="M279.6 170 L274.0 452" stroke="#fff" stroke-opacity="0.35" stroke-width="3" stroke-linecap="round"/><path d="M311.7 170 L298.0 452" stroke="#1d2233" stroke-opacity="0.16" stroke-width="7" stroke-linecap="round"/><path d="M316.7 170 L302.0 452" stroke="#fff" stroke-opacity="0.35" stroke-width="3" stroke-linecap="round"/><path d="M348.9 170 L326.0 452" stroke="#1d2233" stroke-opacity="0.16" stroke-width="7" stroke-linecap="round"/><path d="M353.9 170 L330.0 452" stroke="#fff" stroke-opacity="0.35" stroke-width="3" stroke-linecap="round"/><rect x="100" y="150" width="320" height="330" fill="url(#binfade)"/></g><path d="M126 150 A130 30 0 0 0 386 150" fill="none" stroke="#7a55d6" stroke-width="14" stroke-linecap="round"/><path d="M138 152 A118 24 0 0 0 374 152" fill="none" stroke="#fff" stroke-opacity="0.35" stroke-width="4" stroke-linecap="round"/></svg>
