<svg xmlns="http://www.w3.org/2000/svg" viewBox="0 0 512 512"><defs><filter id="sh" x="-10%" y="-10%" width="120%" height="125%"><feDropShadow dx="0" dy="6" stdDeviation="9" flood-color="#000" flood-opacity="0.22"/></filter><linearGradient id="gloss" x1="0" y1="0" x2="0" y2="1"><stop offset="0" stop-color="#fff" stop-opacity="0.28"/><stop offset="0.45" stop-color="#fff" stop-opacity="0"/></linearGradient><linearGradient id="bg" x1="0" y1="0" x2="0" y2="1"><stop offset="0" stop-color="#6d7a92"/><stop offset="1" stop-color="#3a4458"/></linearGradient></defs><rect x="32" y="28" width="448" height="448" rx="104" fill="url(#bg)" filter="url(#sh)"/><rect x="32" y="28" width="448" height="448" rx="104" fill="url(#gloss)"/><rect x="33" y="29" width="446" height="446" rx="103" fill="none" stroke="#fff" stroke-opacity="0.35" stroke-width="2"/><rect x="176" y="110" width="16" height="44" rx="6" fill="#f2b632"/><rect x="176" y="358" width="16" height="44" rx="6" fill="#f2b632"/><rect x="110" y="176" width="44" height="16" rx="6" fill="#f2b632"/><rect x="358" y="176" width="44" height="16" rx="6" fill="#f2b632"/><rect x="218" y="110" width="16" height="44" rx="6" fill="#f2b632"/><rect x="218" y="358" width="16" height="44" rx="6" fill="#f2b632"/><rect x="110" y="218" width="44" height="16" rx="6" fill="#f2b632"/><rect x="358" y="218" width="44" height="16" rx="6" fill="#f2b632"/><rect x="260" y="110" width="16" height="44" rx="6" fill="#f2b632"/><rect x="260" y="358" width="16" height="44" rx="6" fill="#f2b632"/><rect x="110" y="260" width="44" height="16" rx="6" fill="#f2b632"/><rect x="358" y="260" width="44" height="16" rx="6" fill="#f2b632"/><rect x="302" y="110" width="16" height="44" rx="6" fill="#f2b632"/><rect x="302" y="358" width="16" height="44" rx="6" fill="#f2b632"/><rect x="110" y="302" width="44" height="16" rx="6" fill="#f2b632"/><rect x="358" y="302" width="44" height="16" rx="6" fill="#f2b632"/><rect x="146" y="146" width="220" height="220" rx="34" fill="#f2b632"/><rect x="186" y="186" width="140" height="140" rx="20" fill="#3a4458"/><circle cx="222" cy="222" r="12" fill="#f2b632"/></svg>
