<svg xmlns="http://www.w3.org/2000/svg" viewBox="0 0 512 512"><defs><filter id="sh" x="-10%" y="-10%" width="120%" height="125%"><feDropShadow dx="0" dy="6" stdDeviation="9" flood-color="#000" flood-opacity="0.22"/></filter><linearGradient id="gloss" x1="0" y1="0" x2="0" y2="1"><stop offset="0" stop-color="#fff" stop-opacity="0.28"/><stop offset="0.45" stop-color="#fff" stop-opacity="0"/></linearGradient><linearGradient id="bg" x1="0" y1="0" x2="0" y2="1"><stop offset="0" stop-color="#4cc6b8"/><stop offset="1" stop-color="#1f8a8f"/></linearGradient></defs><rect x="32" y="28" width="448" height="448" rx="104" fill="url(#bg)" filter="url(#sh)"/><rect x="32" y="28" width="448" height="448" rx="104" fill="url(#gloss)"/><rect x="33" y="29" width="446" height="446" rx="103" fill="none" stroke="#fff" stroke-opacity="0.35" stroke-width="2"/><g transform="rotate(-10 218 230)"><rect x="118" y="150" width="200" height="160" rx="18" fill="#fff"/><rect x="132" y="164" width="172" height="118" rx="10" fill="#dff3f1"/><path d="M132 282 L192 214 L230 256 L256 230 L304 282z" fill="#7654dc"/><circle cx="268" cy="194" r="14" fill="#f2b632"/></g><g transform="rotate(8 276 276)"><rect x="176" y="196" width="200" height="160" rx="18" fill="#fff"/><rect x="190" y="210" width="172" height="118" rx="10" fill="#dff3f1"/><path d="M190 328 L250 260 L288 302 L314 276 L362 328z" fill="#7654dc"/><circle cx="326" cy="240" r="14" fill="#f2b632"/></g></svg>
